<svg width="22" height="28" viewBox="0 0 22 28" fill="none" xmlns="http://www.w3.org/2000/svg">
<path d="M0.5 0.5V22.6347L10.9879 27.5L21.5 22.6347V0.5H0.5Z" fill="#EC9A00" style="fill:#EC9A00;fill:color(display-p3 0.9255 0.6039 0.0000);fill-opacity:1;"/>
<path d="M15.8951 13.1072C15.8951 13.9306 15.7502 14.6425 15.4604 15.243C15.1891 15.821 14.7918 16.3303 14.298 16.7333C13.8069 17.1293 13.2459 17.4288 12.6443 17.616C11.4625 17.9879 10.1987 18.0077 9.00602 17.673C8.4777 17.5242 7.97446 17.2971 7.51292 16.999C7.06848 16.712 6.67757 16.349 6.35792 15.9264C6.0341 15.4976 5.79366 15.0114 5.64917 14.4931L8.54087 13.6008C8.67311 14.0614 8.94781 14.4677 9.32522 14.761C9.71022 15.0647 10.167 15.2166 10.6955 15.2166C11.2086 15.227 11.7083 15.0518 12.1035 14.723C12.5018 14.3933 12.701 13.9062 12.701 13.2617C12.701 12.8701 12.6191 12.541 12.4553 12.2746C12.2975 12.0151 12.0804 11.7971 11.8221 11.6386C11.5513 11.4759 11.2537 11.3634 10.9433 11.3064C10.6194 11.2434 10.2903 11.2117 9.96047 11.2114C9.41194 11.2184 8.865 11.2724 8.32562 11.3728C7.76915 11.4662 7.22204 11.6092 6.69077 11.8L7.00997 4.10864H15.2147V6.84239H9.82817L9.71477 8.96864C9.93514 8.91497 10.1596 8.87969 10.3857 8.86317C10.6307 8.84419 10.8544 8.8347 11.0567 8.8347C11.6961 8.83 12.3327 8.91882 12.9467 9.09837C13.5091 9.26013 14.033 9.53459 14.487 9.90521C14.9241 10.2706 15.2752 10.7288 15.515 11.2468C15.7684 11.7783 15.8951 12.3985 15.8951 13.1072Z" fill="white" style="fill:white;fill-opacity:1;"/>
<path d="M0.5 18.3781V20.4832L10.9879 25.3485L21.5 20.4832V18.3781L10.9879 23.2433L0.5 18.3781Z" fill="white" style="fill:white;fill-opacity:1;"/>
</svg>
